# 3ds Max Wavefront OBJ Exporter v0.97b - (c)2007 guruware
# File Created: 05.10.2015 18:52:29

mtllib pill.mtl

#
# object Capsule01
#

v  3.5163 0.0000 1.2146
v  5.3446 -0.2407 1.2146
v  5.0997 -0.2407 0.3004
v  4.4305 -0.2407 -0.3688
v  3.5163 -0.2407 -0.6137
v  2.6022 -0.2407 -0.3688
v  1.9330 -0.2407 0.3004
v  1.6881 -0.2407 1.2146
v  1.9330 -0.2407 2.1287
v  2.6022 -0.2407 2.7979
v  3.5163 -0.2407 3.0428
v  4.4305 -0.2407 2.7979
v  5.0997 -0.2407 2.1287
v  6.5751 -0.9464 -0.5514
v  7.0483 -0.9464 1.2146
v  5.2823 -0.9464 -1.8442
v  3.5163 -0.9464 -2.3174
v  1.7504 -0.9464 -1.8442
v  0.4576 -0.9464 -0.5514
v  -0.0156 -0.9464 1.2146
v  0.4576 -0.9464 2.9805
v  1.7504 -0.9464 4.2733
v  3.5163 -0.9464 4.7465
v  5.2823 -0.9464 4.2733
v  6.5751 -0.9464 2.9805
v  7.8421 -2.0690 -1.2829
v  8.5113 -2.0690 1.2146
v  6.0138 -2.0690 -3.1112
v  3.5163 -2.0690 -3.7804
v  1.0189 -2.0690 -3.1112
v  -0.8094 -2.0690 -1.2829
v  -1.4786 -2.0690 1.2146
v  -0.8094 -2.0690 3.7120
v  1.0189 -2.0690 5.5403
v  3.5163 -2.0690 6.2095
v  6.0138 -2.0690 5.5403
v  7.8421 -2.0690 3.7120
v  8.8143 -3.5319 -1.8442
v  9.6339 -3.5319 1.2146
v  6.5751 -3.5319 -4.0833
v  3.5163 -3.5319 -4.9029
v  0.4576 -3.5319 -4.0833
v  -1.7816 -3.5319 -1.8442
v  -2.6012 -3.5319 1.2146
v  -1.7816 -3.5319 4.2733
v  0.4576 -3.5319 6.5125
v  3.5163 -3.5319 7.3321
v  6.5751 -3.5319 6.5125
v  8.8143 -3.5319 4.2733
v  9.4254 -5.2356 -2.1970
v  10.3395 -5.2356 1.2146
v  6.9279 -5.2356 -4.6945
v  3.5163 -5.2356 -5.6086
v  0.1047 -5.2356 -4.6945
v  -2.3927 -5.2356 -2.1970
v  -3.3069 -5.2356 1.2146
v  -2.3927 -5.2356 4.6262
v  0.1047 -5.2356 7.1236
v  3.5163 -5.2356 8.0378
v  6.9279 -5.2356 7.1236
v  9.4254 -5.2356 4.6262
v  9.6339 -7.0639 -2.3174
v  10.5802 -7.0639 1.2146
v  7.0483 -7.0639 -4.9029
v  3.5163 -7.0639 -5.8493
v  -0.0156 -7.0639 -4.9029
v  -2.6012 -7.0639 -2.3174
v  -3.5476 -7.0639 1.2146
v  -2.6012 -7.0639 4.7465
v  -0.0156 -7.0639 7.3321
v  3.5163 -7.0639 8.2785
v  7.0483 -7.0639 7.3321
v  9.6339 -7.0639 4.7465
v  9.6339 -33.2620 -2.3174
v  10.5802 -33.2620 1.2146
v  7.0483 -33.2620 -4.9029
v  3.5163 -33.2620 -5.8493
v  -0.0156 -33.2620 -4.9029
v  -2.6012 -33.2620 -2.3174
v  -3.5476 -33.2620 1.2146
v  -2.6012 -33.2620 4.7465
v  -0.0156 -33.2620 7.3321
v  3.5163 -33.2620 8.2785
v  7.0483 -33.2620 7.3321
v  9.6339 -33.2620 4.7465
v  9.4254 -35.0903 -2.1970
v  10.3395 -35.0903 1.2146
v  6.9279 -35.0903 -4.6945
v  3.5163 -35.0903 -5.6086
v  0.1047 -35.0903 -4.6945
v  -2.3927 -35.0903 -2.1970
v  -3.3069 -35.0903 1.2146
v  -2.3927 -35.0903 4.6262
v  0.1047 -35.0903 7.1236
v  3.5163 -35.0903 8.0378
v  6.9279 -35.0903 7.1236
v  9.4254 -35.0903 4.6262
v  8.8143 -36.7940 -1.8442
v  9.6339 -36.7940 1.2146
v  6.5751 -36.7940 -4.0833
v  3.5163 -36.7940 -4.9029
v  0.4576 -36.7940 -4.0833
v  -1.7816 -36.7940 -1.8442
v  -2.6012 -36.7940 1.2146
v  -1.7816 -36.7940 4.2733
v  0.4576 -36.7940 6.5125
v  3.5163 -36.7940 7.3321
v  6.5751 -36.7940 6.5125
v  8.8143 -36.7940 4.2733
v  7.8421 -38.2569 -1.2829
v  8.5113 -38.2569 1.2146
v  6.0138 -38.2569 -3.1112
v  3.5163 -38.2569 -3.7804
v  1.0189 -38.2569 -3.1112
v  -0.8094 -38.2569 -1.2829
v  -1.4786 -38.2569 1.2146
v  -0.8094 -38.2569 3.7120
v  1.0189 -38.2569 5.5403
v  3.5163 -38.2569 6.2095
v  6.0138 -38.2569 5.5403
v  7.8421 -38.2569 3.7120
v  6.5751 -39.3795 -0.5514
v  7.0483 -39.3795 1.2146
v  5.2823 -39.3795 -1.8442
v  3.5163 -39.3795 -2.3174
v  1.7504 -39.3795 -1.8442
v  0.4576 -39.3795 -0.5514
v  -0.0156 -39.3795 1.2146
v  0.4576 -39.3795 2.9805
v  1.7504 -39.3795 4.2733
v  3.5163 -39.3795 4.7465
v  5.2823 -39.3795 4.2733
v  6.5751 -39.3795 2.9805
v  5.0997 -40.0852 0.3004
v  5.3446 -40.0852 1.2146
v  4.4305 -40.0852 -0.3688
v  3.5163 -40.0852 -0.6137
v  2.6022 -40.0852 -0.3688
v  1.9330 -40.0852 0.3004
v  1.6881 -40.0852 1.2146
v  1.9330 -40.0852 2.1287
v  2.6022 -40.0852 2.7979
v  3.5163 -40.0852 3.0428
v  4.4305 -40.0852 2.7979
v  5.0997 -40.0852 2.1287
v  3.5163 -40.3259 1.2146
# 146 vertices

vn 0.0000 1.0000 0.0000
vn 0.2789 0.9603 0.0000
vn 0.2415 0.9603 -0.1394
vn 0.1394 0.9603 -0.2415
vn -0.0000 0.9603 -0.2789
vn -0.1394 0.9603 -0.2415
vn -0.2415 0.9603 -0.1394
vn -0.2789 0.9603 -0.0000
vn -0.2415 0.9603 0.1394
vn -0.1394 0.9603 0.2415
vn -0.0000 0.9603 0.2789
vn 0.1394 0.9603 0.2415
vn 0.2415 0.9603 0.1394
vn 0.4468 0.8566 -0.2580
vn 0.5159 0.8566 0.0000
vn 0.2580 0.8566 -0.4468
vn -0.0000 0.8566 -0.5159
vn -0.2580 0.8566 -0.4468
vn -0.4468 0.8566 -0.2580
vn -0.5159 0.8566 -0.0000
vn -0.4468 0.8566 0.2580
vn -0.2580 0.8566 0.4468
vn -0.0000 0.8566 0.5159
vn 0.2580 0.8566 0.4468
vn 0.4468 0.8566 0.2580
vn 0.6215 0.6965 -0.3588
vn 0.7176 0.6965 0.0000
vn 0.3588 0.6965 -0.6215
vn -0.0000 0.6965 -0.7176
vn -0.3588 0.6965 -0.6215
vn -0.6215 0.6965 -0.3588
vn -0.7176 0.6965 -0.0000
vn -0.6215 0.6965 0.3588
vn -0.3588 0.6965 0.6215
vn -0.0000 0.6965 0.7176
vn 0.3588 0.6965 0.6215
vn 0.6215 0.6965 0.3588
vn 0.7545 0.4909 -0.4356
vn 0.8712 0.4909 0.0000
vn 0.4356 0.4909 -0.7545
vn -0.0000 0.4909 -0.8712
vn -0.4356 0.4909 -0.7545
vn -0.7545 0.4909 -0.4356
vn -0.8712 0.4909 -0.0000
vn -0.7545 0.4909 0.4356
vn -0.4356 0.4909 0.7545
vn -0.0000 0.4909 0.8712
vn 0.4356 0.4909 0.7545
vn 0.7545 0.4909 0.4356
vn 0.8377 0.2536 -0.4837
vn 0.9673 0.2536 0.0000
vn 0.4837 0.2536 -0.8377
vn -0.0000 0.2536 -0.9673
vn -0.4837 0.2536 -0.8377
vn -0.8377 0.2536 -0.4837
vn -0.9673 0.2536 -0.0000
vn -0.8377 0.2536 0.4837
vn -0.4837 0.2536 0.8377
vn -0.0000 0.2536 0.9673
vn 0.4837 0.2536 0.8377
vn 0.8377 0.2536 0.4837
vn 0.8642 0.0647 -0.4990
vn 0.9979 0.0647 0.0000
vn 0.4990 0.0647 -0.8642
vn -0.0000 0.0647 -0.9979
vn -0.4990 0.0647 -0.8642
vn -0.8642 0.0647 -0.4990
vn -0.9979 0.0647 -0.0000
vn -0.8642 0.0647 0.4990
vn -0.4990 0.0647 0.8642
vn -0.0000 0.0647 0.9979
vn 0.4990 0.0647 0.8642
vn 0.8642 0.0647 0.4990
vn 0.8642 -0.0647 -0.4990
vn 0.9979 -0.0647 0.0000
vn 0.4990 -0.0647 -0.8642
vn -0.0000 -0.0647 -0.9979
vn -0.4990 -0.0647 -0.8642
vn -0.8642 -0.0647 -0.4990
vn -0.9979 -0.0647 -0.0000
vn -0.8642 -0.0647 0.4990
vn -0.4990 -0.0647 0.8642
vn -0.0000 -0.0647 0.9979
vn 0.4990 -0.0647 0.8642
vn 0.8642 -0.0647 0.4990
vn 0.8377 -0.2536 -0.4837
vn 0.9673 -0.2536 0.0000
vn 0.4837 -0.2536 -0.8377
vn -0.0000 -0.2536 -0.9673
vn -0.4837 -0.2536 -0.8377
vn -0.8377 -0.2536 -0.4837
vn -0.9673 -0.2536 -0.0000
vn -0.8377 -0.2536 0.4837
vn -0.4837 -0.2536 0.8377
vn -0.0000 -0.2536 0.9673
vn 0.4837 -0.2536 0.8377
vn 0.8377 -0.2536 0.4837
vn 0.7545 -0.4909 -0.4356
vn 0.8712 -0.4909 0.0000
vn 0.4356 -0.4909 -0.7545
vn -0.0000 -0.4909 -0.8712
vn -0.4356 -0.4909 -0.7545
vn -0.7545 -0.4909 -0.4356
vn -0.8712 -0.4909 -0.0000
vn -0.7545 -0.4909 0.4356
vn -0.4356 -0.4909 0.7545
vn -0.0000 -0.4909 0.8712
vn 0.4356 -0.4909 0.7545
vn 0.7545 -0.4909 0.4356
vn 0.6215 -0.6965 -0.3588
vn 0.7176 -0.6965 0.0000
vn 0.3588 -0.6965 -0.6215
vn -0.0000 -0.6965 -0.7176
vn -0.3588 -0.6965 -0.6215
vn -0.6215 -0.6965 -0.3588
vn -0.7176 -0.6965 -0.0000
vn -0.6215 -0.6965 0.3588
vn -0.3588 -0.6965 0.6215
vn -0.0000 -0.6965 0.7176
vn 0.3588 -0.6965 0.6215
vn 0.6215 -0.6965 0.3588
vn 0.4468 -0.8566 -0.2580
vn 0.5159 -0.8566 0.0000
vn 0.2580 -0.8566 -0.4468
vn -0.0000 -0.8566 -0.5159
vn -0.2580 -0.8566 -0.4468
vn -0.4468 -0.8566 -0.2580
vn -0.5159 -0.8566 -0.0000
vn -0.4468 -0.8566 0.2580
vn -0.2580 -0.8566 0.4468
vn -0.0000 -0.8566 0.5159
vn 0.2580 -0.8566 0.4468
vn 0.4468 -0.8566 0.2580
vn 0.2415 -0.9603 -0.1394
vn 0.2789 -0.9603 0.0000
vn 0.1394 -0.9603 -0.2415
vn -0.0000 -0.9603 -0.2789
vn -0.1394 -0.9603 -0.2415
vn -0.2415 -0.9603 -0.1394
vn -0.2789 -0.9603 -0.0000
vn -0.2415 -0.9603 0.1394
vn -0.1394 -0.9603 0.2415
vn -0.0000 -0.9603 0.2789
vn 0.1394 -0.9603 0.2415
vn 0.2415 -0.9603 0.1394
vn 0.0000 -1.0000 0.0000
# 146 vertex normals

vt 0.0000 0.8433 0.0000
vt 0.0053 0.8028 0.0000
vt 0.0053 0.8082 0.0000
vt 0.0053 0.8230 0.0000
vt 0.0053 0.8433 0.0000
vt 0.0053 0.8636 0.0000
vt 0.0053 0.8784 0.0000
vt 0.0053 0.8839 0.0000
vt 0.0000 0.1567 0.0000
vt 0.0053 0.1161 0.0000
vt 0.0053 0.1216 0.0000
vt 0.0053 0.1364 0.0000
vt 0.0053 0.1567 0.0000
vt 0.0053 0.1770 0.0000
vt 0.0053 0.1918 0.0000
vt 0.0053 0.1972 0.0000
vt 0.0210 0.7755 0.0000
vt 0.0210 0.7650 0.0000
vt 0.0210 0.8041 0.0000
vt 0.0210 0.8433 0.0000
vt 0.0210 0.8825 0.0000
vt 0.0210 0.9112 0.0000
vt 0.0210 0.9217 0.0000
vt 0.0210 0.0888 0.0000
vt 0.0210 0.0783 0.0000
vt 0.0210 0.1175 0.0000
vt 0.0210 0.1567 0.0000
vt 0.0210 0.1959 0.0000
vt 0.0210 0.2245 0.0000
vt 0.0210 0.2350 0.0000
vt 0.0459 0.7474 0.0000
vt 0.0459 0.7325 0.0000
vt 0.0459 0.7879 0.0000
vt 0.0459 0.8433 0.0000
vt 0.0459 0.8987 0.0000
vt 0.0459 0.9393 0.0000
vt 0.0459 0.9541 0.0000
vt 0.0459 0.0607 0.0000
vt 0.0459 0.0459 0.0000
vt 0.0459 0.1013 0.0000
vt 0.0459 0.1567 0.0000
vt 0.0459 0.2121 0.0000
vt 0.0459 0.2526 0.0000
vt 0.0459 0.2675 0.0000
vt 0.0783 0.7258 0.0000
vt 0.0783 0.7076 0.0000
vt 0.0783 0.7755 0.0000
vt 0.0783 0.8433 0.0000
vt 0.0783 0.9112 0.0000
vt 0.0783 0.9608 0.0000
vt 0.0783 0.9790 0.0000
vt 0.0783 0.0392 0.0000
vt 0.0783 0.0210 0.0000
vt 0.0783 0.0888 0.0000
vt 0.0783 0.1567 0.0000
vt 0.0783 0.2245 0.0000
vt 0.0783 0.2742 0.0000
vt 0.0783 0.2924 0.0000
vt 0.1161 0.7122 0.0000
vt 0.1161 0.6920 0.0000
vt 0.1161 0.7676 0.0000
vt 0.1161 0.8433 0.0000
vt 0.1161 0.9190 0.0000
vt 0.1161 0.9744 0.0000
vt 0.1161 0.9947 0.0000
vt 0.1161 0.0256 0.0000
vt 0.1161 0.0053 0.0000
vt 0.1161 0.0810 0.0000
vt 0.1161 0.1567 0.0000
vt 0.1161 0.2324 0.0000
vt 0.1161 0.2878 0.0000
vt 0.1161 0.3080 0.0000
vt 0.1567 0.7076 0.0000
vt 0.1567 0.6866 0.0000
vt 0.1567 0.7650 0.0000
vt 0.1567 0.8433 0.0000
vt 0.1567 0.9217 0.0000
vt 0.1567 0.9790 0.0000
vt 0.1567 1.0000 0.0000
vt 0.1567 0.0210 0.0000
vt 0.1567 0.0000 0.0000
vt 0.1567 0.0783 0.0000
vt 0.1567 0.1567 0.0000
vt 0.1567 0.2350 0.0000
vt 0.1567 0.2924 0.0000
vt 0.1567 0.3134 0.0000
vt 0.7378 0.7076 0.0000
vt 0.7378 0.6866 0.0000
vt 0.7378 0.7650 0.0000
vt 0.7378 0.8433 0.0000
vt 0.7378 0.9217 0.0000
vt 0.7378 0.9790 0.0000
vt 0.7378 1.0000 0.0000
vt 0.7378 0.0210 0.0000
vt 0.7378 0.0000 0.0000
vt 0.7378 0.0783 0.0000
vt 0.7378 0.1567 0.0000
vt 0.7378 0.2350 0.0000
vt 0.7378 0.2924 0.0000
vt 0.7378 0.3134 0.0000
vt 0.7783 0.7122 0.0000
vt 0.7783 0.6920 0.0000
vt 0.7783 0.7676 0.0000
vt 0.7783 0.8433 0.0000
vt 0.7783 0.9190 0.0000
vt 0.7783 0.9744 0.0000
vt 0.7783 0.9947 0.0000
vt 0.7783 0.0256 0.0000
vt 0.7783 0.0053 0.0000
vt 0.7783 0.0810 0.0000
vt 0.7783 0.1567 0.0000
vt 0.7783 0.2324 0.0000
vt 0.7783 0.2878 0.0000
vt 0.7783 0.3080 0.0000
vt 0.8161 0.7258 0.0000
vt 0.8161 0.7076 0.0000
vt 0.8161 0.7755 0.0000
vt 0.8161 0.8433 0.0000
vt 0.8161 0.9112 0.0000
vt 0.8161 0.9608 0.0000
vt 0.8161 0.9790 0.0000
vt 0.8161 0.0392 0.0000
vt 0.8161 0.0210 0.0000
vt 0.8161 0.0888 0.0000
vt 0.8161 0.1567 0.0000
vt 0.8161 0.2245 0.0000
vt 0.8161 0.2742 0.0000
vt 0.8161 0.2924 0.0000
vt 0.8486 0.7474 0.0000
vt 0.8486 0.7325 0.0000
vt 0.8486 0.7879 0.0000
vt 0.8486 0.8433 0.0000
vt 0.8486 0.8987 0.0000
vt 0.8486 0.9393 0.0000
vt 0.8486 0.9541 0.0000
vt 0.8486 0.0607 0.0000
vt 0.8486 0.0459 0.0000
vt 0.8486 0.1013 0.0000
vt 0.8486 0.1567 0.0000
vt 0.8486 0.2121 0.0000
vt 0.8486 0.2526 0.0000
vt 0.8486 0.2675 0.0000
vt 0.8735 0.7755 0.0000
vt 0.8735 0.7650 0.0000
vt 0.8735 0.8041 0.0000
vt 0.8735 0.8433 0.0000
vt 0.8735 0.8825 0.0000
vt 0.8735 0.9112 0.0000
vt 0.8735 0.9217 0.0000
vt 0.8735 0.0888 0.0000
vt 0.8735 0.0783 0.0000
vt 0.8735 0.1175 0.0000
vt 0.8735 0.1567 0.0000
vt 0.8735 0.1959 0.0000
vt 0.8735 0.2245 0.0000
vt 0.8735 0.2350 0.0000
vt 0.8891 0.8082 0.0000
vt 0.8891 0.8028 0.0000
vt 0.8891 0.8230 0.0000
vt 0.8891 0.8433 0.0000
vt 0.8891 0.8636 0.0000
vt 0.8891 0.8784 0.0000
vt 0.8891 0.8839 0.0000
vt 0.8891 0.1216 0.0000
vt 0.8891 0.1161 0.0000
vt 0.8891 0.1364 0.0000
vt 0.8891 0.1567 0.0000
vt 0.8891 0.1770 0.0000
vt 0.8891 0.1918 0.0000
vt 0.8891 0.1972 0.0000
vt 0.8945 0.8433 0.0000
vt 0.8945 0.1567 0.0000
# 172 texture coords

g Capsule01
usemtl 20___Default
s 4
f 1/1/1 2/2/2 3/3/3 
f 1/1/1 3/3/3 4/4/4 
f 1/1/1 4/4/4 5/5/5 
f 1/1/1 5/5/5 6/6/6 
f 1/1/1 6/6/6 7/7/7 
f 1/1/1 7/7/7 8/8/8 
f 1/9/1 8/10/8 9/11/9 
f 1/9/1 9/11/9 10/12/10 
f 1/9/1 10/12/10 11/13/11 
f 1/9/1 11/13/11 12/14/12 
f 1/9/1 12/14/12 13/15/13 
f 1/9/1 13/15/13 2/16/2 
f 14/17/14 3/3/3 2/2/2 15/18/15 
f 16/19/16 4/4/4 3/3/3 14/17/14 
f 17/20/17 5/5/5 4/4/4 16/19/16 
f 18/21/18 6/6/6 5/5/5 17/20/17 
f 19/22/19 7/7/7 6/6/6 18/21/18 
f 20/23/20 8/8/8 7/7/7 19/22/19 
f 21/24/21 9/11/9 8/10/8 20/25/20 
f 22/26/22 10/12/10 9/11/9 21/24/21 
f 23/27/23 11/13/11 10/12/10 22/26/22 
f 24/28/24 12/14/12 11/13/11 23/27/23 
f 25/29/25 13/15/13 12/14/12 24/28/24 
f 15/30/15 2/16/2 13/15/13 25/29/25 
f 26/31/26 14/17/14 15/18/15 27/32/27 
f 28/33/28 16/19/16 14/17/14 26/31/26 
f 29/34/29 17/20/17 16/19/16 28/33/28 
f 30/35/30 18/21/18 17/20/17 29/34/29 
f 31/36/31 19/22/19 18/21/18 30/35/30 
f 32/37/32 20/23/20 19/22/19 31/36/31 
f 33/38/33 21/24/21 20/25/20 32/39/32 
f 34/40/34 22/26/22 21/24/21 33/38/33 
f 35/41/35 23/27/23 22/26/22 34/40/34 
f 36/42/36 24/28/24 23/27/23 35/41/35 
f 37/43/37 25/29/25 24/28/24 36/42/36 
f 27/44/27 15/30/15 25/29/25 37/43/37 
f 38/45/38 26/31/26 27/32/27 39/46/39 
f 40/47/40 28/33/28 26/31/26 38/45/38 
f 41/48/41 29/34/29 28/33/28 40/47/40 
f 42/49/42 30/35/30 29/34/29 41/48/41 
f 43/50/43 31/36/31 30/35/30 42/49/42 
f 44/51/44 32/37/32 31/36/31 43/50/43 
f 45/52/45 33/38/33 32/39/32 44/53/44 
f 46/54/46 34/40/34 33/38/33 45/52/45 
f 47/55/47 35/41/35 34/40/34 46/54/46 
f 48/56/48 36/42/36 35/41/35 47/55/47 
f 49/57/49 37/43/37 36/42/36 48/56/48 
f 39/58/39 27/44/27 37/43/37 49/57/49 
f 50/59/50 38/45/38 39/46/39 51/60/51 
f 52/61/52 40/47/40 38/45/38 50/59/50 
f 53/62/53 41/48/41 40/47/40 52/61/52 
f 54/63/54 42/49/42 41/48/41 53/62/53 
f 55/64/55 43/50/43 42/49/42 54/63/54 
f 56/65/56 44/51/44 43/50/43 55/64/55 
f 57/66/57 45/52/45 44/53/44 56/67/56 
f 58/68/58 46/54/46 45/52/45 57/66/57 
f 59/69/59 47/55/47 46/54/46 58/68/58 
f 60/70/60 48/56/48 47/55/47 59/69/59 
f 61/71/61 49/57/49 48/56/48 60/70/60 
f 51/72/51 39/58/39 49/57/49 61/71/61 
f 62/73/62 50/59/50 51/60/51 63/74/63 
f 64/75/64 52/61/52 50/59/50 62/73/62 
f 65/76/65 53/62/53 52/61/52 64/75/64 
f 66/77/66 54/63/54 53/62/53 65/76/65 
f 67/78/67 55/64/55 54/63/54 66/77/66 
f 68/79/68 56/65/56 55/64/55 67/78/67 
f 69/80/69 57/66/57 56/67/56 68/81/68 
f 70/82/70 58/68/58 57/66/57 69/80/69 
f 71/83/71 59/69/59 58/68/58 70/82/70 
f 72/84/72 60/70/60 59/69/59 71/83/71 
f 73/85/73 61/71/61 60/70/60 72/84/72 
f 63/86/63 51/72/51 61/71/61 73/85/73 
f 74/87/74 62/73/62 63/74/63 75/88/75 
f 76/89/76 64/75/64 62/73/62 74/87/74 
f 77/90/77 65/76/65 64/75/64 76/89/76 
f 78/91/78 66/77/66 65/76/65 77/90/77 
f 79/92/79 67/78/67 66/77/66 78/91/78 
f 80/93/80 68/79/68 67/78/67 79/92/79 
f 81/94/81 69/80/69 68/81/68 80/95/80 
f 82/96/82 70/82/70 69/80/69 81/94/81 
f 83/97/83 71/83/71 70/82/70 82/96/82 
f 84/98/84 72/84/72 71/83/71 83/97/83 
f 85/99/85 73/85/73 72/84/72 84/98/84 
f 75/100/75 63/86/63 73/85/73 85/99/85 
f 86/101/86 74/87/74 75/88/75 87/102/87 
f 88/103/88 76/89/76 74/87/74 86/101/86 
f 89/104/89 77/90/77 76/89/76 88/103/88 
f 90/105/90 78/91/78 77/90/77 89/104/89 
f 91/106/91 79/92/79 78/91/78 90/105/90 
f 92/107/92 80/93/80 79/92/79 91/106/91 
f 93/108/93 81/94/81 80/95/80 92/109/92 
f 94/110/94 82/96/82 81/94/81 93/108/93 
f 95/111/95 83/97/83 82/96/82 94/110/94 
f 96/112/96 84/98/84 83/97/83 95/111/95 
f 97/113/97 85/99/85 84/98/84 96/112/96 
f 87/114/87 75/100/75 85/99/85 97/113/97 
f 98/115/98 86/101/86 87/102/87 99/116/99 
f 100/117/100 88/103/88 86/101/86 98/115/98 
f 101/118/101 89/104/89 88/103/88 100/117/100 
f 102/119/102 90/105/90 89/104/89 101/118/101 
f 103/120/103 91/106/91 90/105/90 102/119/102 
f 104/121/104 92/107/92 91/106/91 103/120/103 
f 105/122/105 93/108/93 92/109/92 104/123/104 
f 106/124/106 94/110/94 93/108/93 105/122/105 
f 107/125/107 95/111/95 94/110/94 106/124/106 
f 108/126/108 96/112/96 95/111/95 107/125/107 
f 109/127/109 97/113/97 96/112/96 108/126/108 
f 99/128/99 87/114/87 97/113/97 109/127/109 
f 110/129/110 98/115/98 99/116/99 111/130/111 
f 112/131/112 100/117/100 98/115/98 110/129/110 
f 113/132/113 101/118/101 100/117/100 112/131/112 
f 114/133/114 102/119/102 101/118/101 113/132/113 
f 115/134/115 103/120/103 102/119/102 114/133/114 
f 116/135/116 104/121/104 103/120/103 115/134/115 
f 117/136/117 105/122/105 104/123/104 116/137/116 
f 118/138/118 106/124/106 105/122/105 117/136/117 
f 119/139/119 107/125/107 106/124/106 118/138/118 
f 120/140/120 108/126/108 107/125/107 119/139/119 
f 121/141/121 109/127/109 108/126/108 120/140/120 
f 111/142/111 99/128/99 109/127/109 121/141/121 
f 122/143/122 110/129/110 111/130/111 123/144/123 
f 124/145/124 112/131/112 110/129/110 122/143/122 
f 125/146/125 113/132/113 112/131/112 124/145/124 
f 126/147/126 114/133/114 113/132/113 125/146/125 
f 127/148/127 115/134/115 114/133/114 126/147/126 
f 128/149/128 116/135/116 115/134/115 127/148/127 
f 129/150/129 117/136/117 116/137/116 128/151/128 
f 130/152/130 118/138/118 117/136/117 129/150/129 
f 131/153/131 119/139/119 118/138/118 130/152/130 
f 132/154/132 120/140/120 119/139/119 131/153/131 
f 133/155/133 121/141/121 120/140/120 132/154/132 
f 123/156/123 111/142/111 121/141/121 133/155/133 
f 134/157/134 122/143/122 123/144/123 135/158/135 
f 136/159/136 124/145/124 122/143/122 134/157/134 
f 137/160/137 125/146/125 124/145/124 136/159/136 
f 138/161/138 126/147/126 125/146/125 137/160/137 
f 139/162/139 127/148/127 126/147/126 138/161/138 
f 140/163/140 128/149/128 127/148/127 139/162/139 
f 141/164/141 129/150/129 128/151/128 140/165/140 
f 142/166/142 130/152/130 129/150/129 141/164/141 
f 143/167/143 131/153/131 130/152/130 142/166/142 
f 144/168/144 132/154/132 131/153/131 143/167/143 
f 145/169/145 133/155/133 132/154/132 144/168/144 
f 135/170/135 123/156/123 133/155/133 145/169/145 
f 135/158/135 146/171/146 134/157/134 
f 134/157/134 146/171/146 136/159/136 
f 136/159/136 146/171/146 137/160/137 
f 137/160/137 146/171/146 138/161/138 
f 138/161/138 146/171/146 139/162/139 
f 139/162/139 146/171/146 140/163/140 
f 140/165/140 146/172/146 141/164/141 
f 141/164/141 146/172/146 142/166/142 
f 142/166/142 146/172/146 143/167/143 
f 143/167/143 146/172/146 144/168/144 
f 144/168/144 146/172/146 145/169/145 
f 145/169/145 146/172/146 135/170/135 
# 132 polygons - 24 triangles

